<?xml version="1.0" encoding="utf-8"?>
<!-- Generator: Adobe Illustrator 19.0.0, SVG Export Plug-In . SVG Version: 6.00 Build 0)  -->
<svg version="1.1" id="Layer_1" xmlns="http://www.w3.org/2000/svg" xmlns:xlink="http://www.w3.org/1999/xlink" x="0px" y="0px"
	 viewBox="0 0 512 512" style="enable-background:new 0 0 512 512;" xml:space="preserve">
<g id="XMLID_1_">
	<path id="XMLID_3_" d="M467.3,210H156.1L277,94.2c17.5-18.4,17.5-47.3,0-65.8c-17.5-18.4-45.6-18.4-63.1,0L13.2,224
		C4.4,232.8,0,244.2,0,256.4l0,0c0,12.3,4.4,24.5,13.2,32.4l200.8,194.6c17.5,18.4,45.6,18.4,63.1,0c17.5-18.4,17.5-47.3,0-65.8
		l-121-114.8h311.2c24.5,0,44.7-21,44.7-46.5C512,230.1,491.8,210,467.3,210L467.3,210z"/>
</g>
</svg>
