<?xml version="1.0" encoding="utf-8"?>
<!-- Generator: Adobe Illustrator 24.1.1, SVG Export Plug-In . SVG Version: 6.00 Build 0)  -->
<svg version="1.1" id="Layer_1" xmlns="http://www.w3.org/2000/svg" xmlns:xlink="http://www.w3.org/1999/xlink" x="0px" y="0px"
	 viewBox="0 0 512 512" style="enable-background:new 0 0 512 512;" xml:space="preserve">
<g>
	<path d="M256,25.6c0,0-158.4,136.7-246.9,210.7C3.9,241.1,0,247.9,0,256c0,14.2,11.4,25.6,25.6,25.6h51.2v179.2
		c0,14.2,11.4,25.6,25.6,25.6h76.8c14.2,0,25.6-11.5,25.6-25.6V358.4h102.4v102.4c0,14.1,11.4,25.6,25.6,25.6h76.8
		c14.2,0,25.6-11.4,25.6-25.6V281.6h51.2c14.2,0,25.6-11.4,25.6-25.6c0-8.1-3.9-14.9-9.8-19.7C414.3,162.3,256,25.6,256,25.6z"/>
</g>
</svg>
