<?xml version="1.0" encoding="utf-8"?>
<!-- Generator: Adobe Illustrator 19.0.0, SVG Export Plug-In . SVG Version: 6.00 Build 0)  -->
<svg version="1.1" id="Layer_1" xmlns="http://www.w3.org/2000/svg" xmlns:xlink="http://www.w3.org/1999/xlink" x="0px" y="0px"
	 viewBox="0 0 512 512" style="enable-background:new 0 0 512 512;" xml:space="preserve">
<g id="XMLID_2_">
	<path id="XMLID_4_" d="M512,44.5v148.4c0,5.6-1.9,11.1-6.5,14.8c-4.6,4.6-9.3,6.5-14.8,6.5H342.3c-9.3,0-15.8-4.6-19.5-13
		c-3.7-8.3-1.9-16.7,4.6-23.2l45.4-45.4c-32.5-30.6-71.4-45.4-115.9-45.4c-23.2,0-45.4,4.6-65.9,13.9c-21.3,9.3-39,21.3-54.7,36.2
		c-14.8,14.8-27.8,33.4-36.2,54.7c-9.3,21.3-13.9,42.7-13.9,65.9c0,23.2,4.6,45.4,13.9,65.9c9.3,21.3,21.3,39,36.2,54.7
		c14.8,14.8,33.4,27.8,54.7,36.2c21.3,9.3,42.7,13.9,65.9,13.9c26,0,51-5.6,75.1-17.6c23.2-11.1,43.6-27.8,59.4-49.2
		c1.9-1.9,3.7-3.7,7.4-3.7c2.8,0,5.6,0.9,8.3,2.8l45.4,45.4c1.9,1.9,2.8,3.7,2.8,6.5c0,2.8-0.9,5.6-2.8,7.4
		c-24.1,29.7-53.8,51.9-88.1,67.7C330.2,503.7,294,512,256,512c-34.3,0-67.7-6.5-99.2-20.4c-31.5-13.9-58.4-31.5-81.6-54.7
		c-23.2-23.2-40.8-50.1-54.7-81.6C6.5,323.7,0,291.2,0,256s6.5-67.7,20.4-99.2s31.5-58.4,54.7-81.6s50.1-40.8,81.6-54.7
		S220.8,0,256,0c32.5,0,64,6.5,94.6,18.6s57.5,29.7,81.6,51.9l43.6-42.7c6.5-6.5,13.9-8.3,23.2-4.6C507.4,28.8,512,35.2,512,44.5z"
		/>
</g>
</svg>
